# xmcd CD database file
#
# Track frame offsets:
#	150
#	23284
#	49961
#	68221
#	82948
#	102219
#	117038
#	136366
#	156377
#	178288
#	199337
#	219921
#	243327
#	257783
#	276663
#	296243
#	311412
#
# Disc length: 4438 seconds
#
# Revision: 1
# Processed by: cddbd v1.5.2PL0 Copyright (c) Steve Scherf et al.
# Submitted via: CDex 2.03
#
DISCID=fd115411
DTITLE=Franklin, Aretha - Jewels In The Crown - All-Star Duets With The Queen
DYEAR=2007
DGENRE=Blues
TTITLE0=Jumpin' Jack Flash with Keith Richards
TTITLE1=Sisters Are Doin' It For Themselves with Eurythmics
TTITLE2=I Knew You Were Waiting (For Me) with George Michael 
TTITLE3=What Now My Love with Frank Sinatra
TTITLE4=Put You Up On Game with Fantasia
TTITLE5=What Y'All Came To Do with John Legend
TTITLE6=Never Gonna Break My Faith with Mary J. Blige featuring the Harlem Boys Choir
TTITLE7=Through The Storm Duet with Elton John
TTITLE8=It Isn't, It Wasn't, It Ain't Never Gonna Be Duet with Whitney Houston
TTITLE9=(You Make Me Feel) Like A Natural Woman Feat. Bonnie Raitt and Gloria Estefan
TTITLE10=Doctor's Orders with Luther Vandross
TTITLE11=Ever Changing Times with Michael McDonald
TTITLE12=Chain Of Fools with Mariah Carey
TTITLE13=Don't Waste Your Time with Mary J. Blige
TTITLE14=Love All The Hurt Away with George Benson
TTITLE15=Nessun Dorma with the New York Recording Orchestra
TTITLE16=(Bonus Track) If Ever a Love There Was with the Four Tops and Kenny G
EXTD=YEAR: 2007
EXTT0=
EXTT1=
EXTT2=
EXTT3=
EXTT4=
EXTT5=
EXTT6=
EXTT7=
EXTT8=
EXTT9=
EXTT10=
EXTT11=
EXTT12=
EXTT13=
EXTT14=
EXTT15=
EXTT16=
PLAYORDER=
